HIERARCHY
ROOT Hips
{
	OFFSET -0.001795 -0.223333 0.028219
	CHANNELS 6 Xposition Yposition Zposition Zrotation Yrotation Xrotation 
	JOINT LeftUpLeg
	{
		OFFSET 0.069520 -0.091406 -0.006815
		CHANNELS 3 Zrotation Yrotation Xrotation
		JOINT LeftLeg
		{
			OFFSET 0.034277 -0.375199 -0.004496
			CHANNELS 3 Zrotation Yrotation Xrotation
			JOINT LeftFoot
			{
				OFFSET -0.013596 -0.397961 -0.043693
				CHANNELS 3 Zrotation Yrotation Xrotation
				JOINT LeftToe
				{
					OFFSET 0.026358 -0.055791 0.119288
					CHANNELS 3 Zrotation Yrotation Xrotation
					End Site
					{
						OFFSET 0.000000 0.000000 0.000000
					}
				}
			}
		}
	}
	JOINT RightUpLeg
	{
		OFFSET -0.067670 -0.090522 -0.004320
		CHANNELS 3 Zrotation Yrotation Xrotation
		JOINT RightLeg
		{
			OFFSET -0.038290 -0.382569 -0.008850
			CHANNELS 3 Zrotation Yrotation Xrotation
			JOINT RightFoot
			{
				OFFSET 0.015774 -0.398415 -0.042312
				CHANNELS 3 Zrotation Yrotation Xrotation
				JOINT RightToe
				{
					OFFSET -0.025372 -0.048144 0.123348
					CHANNELS 3 Zrotation Yrotation Xrotation
					End Site
					{
						OFFSET 0.000000 0.000000 0.000000
					}
				}
			}
		}
	}
	JOINT Spine
	{
		OFFSET -0.002533 0.108963 -0.026696
		CHANNELS 3 Zrotation Yrotation Xrotation
		JOINT Spine1
		{
			OFFSET 0.005487 0.135180 0.001092
			CHANNELS 3 Zrotation Yrotation Xrotation
			JOINT Spine2
			{
				OFFSET 0.001457 0.052922 0.025425
				CHANNELS 3 Zrotation Yrotation Xrotation
				JOINT Neck
				{
					OFFSET -0.002778 0.213870 -0.042857
					CHANNELS 3 Zrotation Yrotation Xrotation
					JOINT Head
					{
						OFFSET 0.005152 0.064970 0.051349
						CHANNELS 3 Zrotation Yrotation Xrotation
						End Site
						{
							OFFSET 0.000000 0.000000 0.000000
						}
					}
				}
				JOINT LeftShoulder
				{
					OFFSET 0.078845 0.121749 -0.034090
					CHANNELS 3 Zrotation Yrotation Xrotation
					JOINT LeftArm
					{
						OFFSET 0.090977 0.030469 -0.008868
						CHANNELS 3 Zrotation Yrotation Xrotation
						JOINT LeftForeArm
						{
							OFFSET 0.259612 -0.012772 -0.027456
							CHANNELS 3 Zrotation Yrotation Xrotation
							JOINT LeftHand
							{
								OFFSET 0.249234 0.008986 -0.001171
								CHANNELS 3 Zrotation Yrotation Xrotation
								End Site
								{
									OFFSET 0.000000 0.000000 0.000000
								}
							}
						}
					}
				}
				JOINT RightShoulder
				{
					OFFSET -0.081759 0.118833 -0.038615
					CHANNELS 3 Zrotation Yrotation Xrotation
					JOINT RightArm
					{
						OFFSET -0.096012 0.032551 -0.009143
						CHANNELS 3 Zrotation Yrotation Xrotation
						JOINT RightForeArm
						{
							OFFSET -0.253742 -0.013329 -0.021401
							CHANNELS 3 Zrotation Yrotation Xrotation
							JOINT RightHand
							{
								OFFSET -0.255298 0.007772 -0.005559
								CHANNELS 3 Zrotation Yrotation Xrotation
								End Site
								{
									OFFSET 0.000000 0.000000 0.000000
								}
							}
						}
					}
				}
			}
		}
	}
}
MOTION
Frames: 14
Frame Time: 0.050000
-0.036559 0.950743 -0.012209 1.362598 -2.414686 9.891233 8.613103 -0.393766 -8.241711 -5.904361 0.570130 -5.499108 8.008429 17.603305 24.289668 0.000000 0.000000 0.000000 -10.407619 0.649560 -9.088221 4.952695 -0.463281 -3.474908 -8.781216 -21.223497 19.475524 0.000000 0.000000 0.000000 9.259571 -0.772574 3.155784 -5.527152 2.091892 -13.472546 -7.083598 1.603370 27.619569 15.120919 -7.728661 -24.362442 0.000000 0.000000 0.000000 -3.918220 -21.907266 8.289901 -21.965729 -39.952485 1.868480 27.138535 -76.633559 -17.279780 0.000000 0.000000 0.000000 12.218298 3.833513 1.237911 28.711808 40.710834 3.801470 -84.816714 87.071272 -76.451038 0.000000 0.000000 0.000000 
-0.037202 0.950099 -0.011769 1.273826 -3.129000 10.019743 8.986439 -0.359555 -7.775304 -6.175613 0.585489 -6.301132 8.242706 17.801217 24.567283 0.000000 0.000000 0.000000 -10.190223 0.682684 -9.268977 4.660045 -0.434522 -3.731798 -8.322824 -20.618725 19.074600 0.000000 0.000000 0.000000 9.274077 -0.733315 2.821893 -5.832602 2.178313 -13.416913 -6.839479 2.063413 28.128371 15.102018 -7.919759 -23.657516 0.000000 0.000000 0.000000 -3.990500 -20.623617 7.828566 -23.674980 -38.834696 2.007377 36.821717 -79.691498 -26.234714 0.000000 0.000000 0.000000 11.823587 3.556216 1.124983 28.484735 42.908457 4.181697 -109.879364 84.270892 -98.565949 0.000000 0.000000 0.000000 
-0.037688 0.949610 -0.012200 1.071134 -3.897390 10.362915 9.275837 -0.338642 -8.293499 -6.079364 0.596596 -5.966161 8.707333 18.279515 25.127852 0.000000 0.000000 0.000000 -9.935476 0.727326 -9.724965 4.456604 -0.412470 -3.784036 -8.033428 -20.278972 19.091669 0.000000 0.000000 0.000000 9.320987 -0.760861 2.968488 -6.068183 2.229562 -13.604370 -6.483270 2.614654 27.922981 15.239776 -7.863665 -24.093181 0.000000 0.000000 0.000000 -4.846267 -19.974807 7.728275 -24.906405 -38.234734 2.147219 48.615551 -80.213823 -36.573343 0.000000 0.000000 0.000000 12.216732 3.510782 1.103560 29.453561 44.483699 4.852835 -96.592136 83.713347 -84.390752 0.000000 0.000000 0.000000 
-0.038154 0.949273 -0.013199 0.639761 -4.207692 10.508947 9.896311 -0.300579 -8.745387 -6.121761 0.611121 -5.527711 8.744345 18.272490 24.745586 0.000000 0.000000 0.000000 -9.413689 0.763674 -10.269790 4.297463 -0.399225 -3.462006 -7.967199 -20.223572 18.737687 0.000000 0.000000 0.000000 9.587802 -0.801139 3.126637 -6.296030 2.295082 -13.591643 -5.969436 2.676940 27.775036 15.140031 -7.789768 -24.220879 0.000000 0.000000 0.000000 -6.109638 -19.597050 7.804136 -26.372564 -38.514375 2.507336 52.599258 -79.650977 -39.507390 0.000000 0.000000 0.000000 13.121843 4.209298 1.397786 31.777708 45.219815 5.775273 -58.793497 85.034333 -48.948671 0.000000 0.000000 0.000000 
-0.038930 0.948858 -0.014459 0.614947 -3.900470 10.737518 10.156380 -0.298897 -9.401415 -6.051488 0.611928 -4.848831 8.389948 17.863110 24.335076 0.000000 0.000000 0.000000 -9.337178 0.767353 -10.485380 4.208269 -0.396530 -3.350082 -7.713201 -19.799751 18.540702 0.000000 0.000000 0.000000 9.702088 -0.802000 2.983188 -6.372267 2.333972 -13.311047 -5.861210 2.668467 27.462910 14.952590 -7.632658 -24.222453 0.000000 0.000000 0.000000 -7.968540 -20.206883 8.332486 -26.958447 -39.304077 2.800050 43.858797 -77.819960 -30.973181 0.000000 0.000000 0.000000 14.728995 4.720575 1.655711 35.488070 44.293663 6.726260 -6.163049 83.444249 0.027061 0.000000 0.000000 0.000000 
-0.040345 0.948653 -0.015609 0.324333 -3.791014 10.726175 10.783139 -0.260756 -9.743824 -6.260120 0.630694 -4.615857 8.418713 17.904279 24.059641 0.000000 0.000000 0.000000 -9.004245 0.779792 -10.690554 4.264637 -0.400833 -3.130835 -7.873024 -20.032982 18.311516 0.000000 0.000000 0.000000 9.981338 -0.830262 3.043323 -6.499347 2.387448 -13.012836 -5.452319 2.576898 27.149765 15.114359 -7.742994 -24.170881 0.000000 0.000000 0.000000 -9.522065 -20.754349 8.827509 -28.148316 -39.903830 3.220338 34.606806 -75.944383 -22.474033 0.000000 0.000000 0.000000 16.603029 5.348618 1.942318 39.077846 42.772209 7.384924 15.317115 78.423949 17.648025 0.000000 0.000000 0.000000 
-0.042386 0.948185 -0.016955 0.330754 -3.294780 10.725469 11.187358 -0.249517 -10.111883 -6.370981 0.640136 -4.177636 8.243657 17.742321 23.797748 0.000000 0.000000 0.000000 -8.878739 0.771101 -10.699449 4.314163 -0.409393 -3.131297 -8.128502 -20.372975 18.478886 0.000000 0.000000 0.000000 10.120296 -0.834618 2.951460 -6.493237 2.400105 -12.826499 -5.418567 2.297005 27.136825 14.764023 -7.630054 -23.742793 0.000000 0.000000 0.000000 -10.403043 -21.505733 9.304589 -28.391073 -40.402715 3.398025 27.031255 -73.921075 -15.911940 0.000000 0.000000 0.000000 17.579257 5.769781 2.161807 42.349288 40.889592 7.685619 21.836423 73.364658 21.137357 0.000000 0.000000 0.000000 
-0.044844 0.947935 -0.018561 0.150075 -3.151433 10.612085 11.726518 -0.214292 -10.191481 -6.286253 0.638581 -3.809038 8.122681 17.600219 23.580613 0.000000 0.000000 0.000000 -8.400741 0.783502 -10.780311 4.495045 -0.423250 -2.547162 -8.049604 -20.233828 18.007669 0.000000 0.000000 0.000000 10.203263 -0.861299 3.133472 -6.253789 2.326829 -12.723282 -5.336610 1.961764 26.833218 14.636139 -7.569661 -23.719676 0.000000 0.000000 0.000000 -10.357751 -21.968556 9.535552 -28.475459 -40.772258 3.548411 24.240300 -71.672435 -13.214917 0.000000 0.000000 0.000000 17.779612 6.044891 2.241895 44.584957 39.441353 7.807241 23.865352 69.448917 21.069642 0.000000 0.000000 0.000000 
-0.047277 0.947678 -0.020603 -0.068299 -2.947014 10.551115 12.233254 -0.179468 -10.512689 -6.359760 0.650499 -3.395113 8.101235 17.605502 23.861144 0.000000 0.000000 0.000000 -8.176230 0.789946 -10.918888 4.817226 -0.449302 -2.288011 -8.093718 -20.281896 17.854516 0.000000 0.000000 0.000000 10.586325 -0.877720 3.061368 -6.628671 2.464622 -12.544829 -5.149041 1.526891 26.978582 14.024174 -7.274016 -23.617628 0.000000 0.000000 0.000000 -9.875313 -22.373828 9.678935 -27.605833 -41.183088 3.437427 25.345616 -70.395367 -13.682972 0.000000 0.000000 0.000000 17.339071 6.652337 2.487172 45.046702 39.070435 7.782830 21.132210 66.918048 18.111571 0.000000 0.000000 0.000000 
-0.049309 0.947645 -0.022973 -0.224863 -2.856681 10.614006 12.526269 -0.159297 -10.735754 -6.396228 0.656904 -3.176809 8.071300 17.563481 23.377860 0.000000 0.000000 0.000000 -8.183292 0.810109 -11.564712 5.261837 -0.487615 -1.628824 -7.902786 -19.988189 18.051066 0.000000 0.000000 0.000000 10.460440 -0.838120 2.794492 -6.612298 2.465811 -12.394600 -4.762520 1.473328 26.998204 13.442947 -6.958861 -23.413892 0.000000 0.000000 0.000000 -9.054669 -22.835527 9.716868 -25.451340 -41.984035 3.068168 31.542322 -68.707729 -17.687943 0.000000 0.000000 0.000000 16.909294 6.709884 2.519860 44.179657 39.341240 7.644318 16.314773 65.820991 14.504918 0.000000 0.000000 0.000000 
-0.050755 0.947639 -0.025252 -0.281166 -2.734094 10.484795 12.608733 -0.151751 -10.813389 -6.549334 0.671767 -3.051701 8.264552 17.823831 23.313489 0.000000 0.000000 0.000000 -8.244415 0.812396 -11.911091 5.372159 -0.503732 -0.931473 -7.577805 -19.453214 17.399785 0.000000 0.000000 0.000000 10.477407 -0.877033 3.115162 -6.454008 2.415207 -12.411149 -4.745566 1.565620 26.810846 13.134904 -6.734649 -23.411233 0.000000 0.000000 0.000000 -7.564147 -22.431793 9.230350 -24.025056 -43.099172 2.914735 41.168140 -67.824889 -24.141709 0.000000 0.000000 0.000000 16.220812 7.385784 2.907098 41.492511 40.777135 7.450258 8.845730 65.154209 9.439356 0.000000 0.000000 0.000000 
-0.051564 0.947701 -0.027231 -0.203764 -2.716516 10.264650 12.457056 -0.160860 -10.613346 -6.663963 0.677303 -3.253357 8.522113 18.162122 23.674597 0.000000 0.000000 0.000000 -8.516216 0.796584 -11.986367 5.660987 -0.529588 -0.933922 -7.261926 -18.980323 18.196039 0.000000 0.000000 0.000000 10.231353 -0.868430 3.249019 -6.713690 2.502282 -12.533766 -4.491498 1.971137 27.014545 12.730589 -6.585846 -22.672652 0.000000 0.000000 0.000000 -5.355604 -22.098096 8.629777 -22.677474 -44.040454 2.692503 51.799374 -66.675567 -31.223242 0.000000 0.000000 0.000000 14.594762 7.866847 3.220920 38.251594 42.543181 7.107547 -2.851972 65.369021 2.029744 0.000000 0.000000 0.000000 
-0.051849 0.947903 -0.028628 -0.035753 -3.133414 10.041314 12.145875 -0.168153 -10.239162 -6.664017 0.684710 -3.231043 8.532826 18.113982 23.098063 0.000000 0.000000 0.000000 -8.931937 0.786657 -12.092543 6.057892 -0.564658 -0.452573 -6.928232 -18.498093 18.045421 0.000000 0.000000 0.000000 9.861755 -0.875467 3.599580 -6.847662 2.519506 -13.085515 -4.325373 2.689899 27.253969 13.125390 -6.747045 -22.776900 0.000000 0.000000 0.000000 -2.999686 -21.165178 7.816759 -22.524764 -43.885415 2.592600 62.459802 -66.550092 -39.045513 0.000000 0.000000 0.000000 12.657145 8.387141 3.511411 33.253660 45.100524 6.346550 -15.140745 66.009057 -5.878044 0.000000 0.000000 0.000000 
-0.051695 0.948187 -0.029536 0.251738 -3.488856 10.159496 11.607124 -0.199246 -10.040832 -6.685070 0.686756 -3.449578 8.948587 18.601521 23.272871 0.000000 0.000000 0.000000 -9.576292 0.780228 -12.578195 6.306706 -0.581741 -0.407112 -6.698462 -18.198247 18.326822 0.000000 0.000000 0.000000 9.783219 -0.795113 2.998338 -7.162675 2.626657 -12.912087 -4.497850 3.854661 27.404434 13.519509 -6.801271 -23.026087 0.000000 0.000000 0.000000 -1.390746 -20.262757 7.167516 -22.902091 -43.255551 2.521801 71.295294 -67.745491 -47.075987 0.000000 0.000000 0.000000 9.491059 8.383405 3.514446 28.862465 49.144939 6.008653 -31.931368 64.526003 -16.160818 0.000000 0.000000 0.000000 
